<mxfile host="app.diagrams.net" modified="2024-04-23T05:02:45.602Z" agent="Mozilla/5.0 (Windows NT 10.0; Win64; x64) AppleWebKit/537.36 (KHTML, like Gecko) Chrome/126.0.0.0 Safari/537.36" etag="kESO5UYbRu_ibhfzFwPY" version="24.2.7" type="github">
  <diagram name="第 1 页" id="mZQYzeit35BsF_IFHR48">
    <mxGraphModel dx="1050" dy="522" grid="1" gridSize="10" guides="1" tooltips="1" connect="1" arrows="1" fold="1" page="1" pageScale="1" pageWidth="827" pageHeight="1169" math="0" shadow="0">
      <root>
        <mxCell id="0" />
        <mxCell id="1" parent="0" />
        <mxCell id="aH9VVoESqp7Za4fdIKT4-1" value="浏览器" style="html=1;whiteSpace=wrap;" vertex="1" parent="1">
          <mxGeometry x="130" y="50" width="110" height="50" as="geometry" />
        </mxCell>
        <mxCell id="aH9VVoESqp7Za4fdIKT4-2" value="后端控制器" style="html=1;whiteSpace=wrap;" vertex="1" parent="1">
          <mxGeometry x="330" y="50" width="110" height="50" as="geometry" />
        </mxCell>
        <mxCell id="aH9VVoESqp7Za4fdIKT4-3" value="反馈实体类" style="html=1;whiteSpace=wrap;" vertex="1" parent="1">
          <mxGeometry x="520" y="50" width="110" height="50" as="geometry" />
        </mxCell>
        <mxCell id="aH9VVoESqp7Za4fdIKT4-4" value="" style="endArrow=none;dashed=1;html=1;rounded=0;entryX=0.5;entryY=1;entryDx=0;entryDy=0;" edge="1" parent="1" source="aH9VVoESqp7Za4fdIKT4-8" target="aH9VVoESqp7Za4fdIKT4-1">
          <mxGeometry width="50" height="50" relative="1" as="geometry">
            <mxPoint x="185" y="460" as="sourcePoint" />
            <mxPoint x="440" y="250" as="targetPoint" />
          </mxGeometry>
        </mxCell>
        <mxCell id="aH9VVoESqp7Za4fdIKT4-6" value="" style="endArrow=none;dashed=1;html=1;rounded=0;entryX=0.5;entryY=1;entryDx=0;entryDy=0;" edge="1" parent="1" target="aH9VVoESqp7Za4fdIKT4-2">
          <mxGeometry width="50" height="50" relative="1" as="geometry">
            <mxPoint x="390" y="450" as="sourcePoint" />
            <mxPoint x="440" y="250" as="targetPoint" />
          </mxGeometry>
        </mxCell>
        <mxCell id="aH9VVoESqp7Za4fdIKT4-7" value="" style="endArrow=none;dashed=1;html=1;rounded=0;entryX=0.5;entryY=1;entryDx=0;entryDy=0;" edge="1" parent="1" source="aH9VVoESqp7Za4fdIKT4-12" target="aH9VVoESqp7Za4fdIKT4-3">
          <mxGeometry width="50" height="50" relative="1" as="geometry">
            <mxPoint x="580" y="460" as="sourcePoint" />
            <mxPoint x="440" y="250" as="targetPoint" />
          </mxGeometry>
        </mxCell>
        <mxCell id="aH9VVoESqp7Za4fdIKT4-9" value="" style="endArrow=none;dashed=1;html=1;rounded=0;entryX=0.5;entryY=1;entryDx=0;entryDy=0;" edge="1" parent="1" source="aH9VVoESqp7Za4fdIKT4-16" target="aH9VVoESqp7Za4fdIKT4-8">
          <mxGeometry width="50" height="50" relative="1" as="geometry">
            <mxPoint x="185" y="460" as="sourcePoint" />
            <mxPoint x="185" y="100" as="targetPoint" />
          </mxGeometry>
        </mxCell>
        <mxCell id="aH9VVoESqp7Za4fdIKT4-8" value="" style="html=1;points=[[0,0,0,0,5],[0,1,0,0,-5],[1,0,0,0,5],[1,1,0,0,-5]];perimeter=orthogonalPerimeter;outlineConnect=0;targetShapes=umlLifeline;portConstraint=eastwest;newEdgeStyle={&quot;curved&quot;:0,&quot;rounded&quot;:0};" vertex="1" parent="1">
          <mxGeometry x="180" y="150" width="10" height="80" as="geometry" />
        </mxCell>
        <mxCell id="aH9VVoESqp7Za4fdIKT4-10" value="1.填写的反馈数据" style="html=1;verticalAlign=bottom;endArrow=block;curved=0;rounded=0;" edge="1" parent="1" target="aH9VVoESqp7Za4fdIKT4-11">
          <mxGeometry width="80" relative="1" as="geometry">
            <mxPoint x="190" y="170" as="sourcePoint" />
            <mxPoint x="380" y="170" as="targetPoint" />
          </mxGeometry>
        </mxCell>
        <mxCell id="aH9VVoESqp7Za4fdIKT4-11" value="" style="html=1;points=[[0,0,0,0,5],[0,1,0,0,-5],[1,0,0,0,5],[1,1,0,0,-5]];perimeter=orthogonalPerimeter;outlineConnect=0;targetShapes=umlLifeline;portConstraint=eastwest;newEdgeStyle={&quot;curved&quot;:0,&quot;rounded&quot;:0};" vertex="1" parent="1">
          <mxGeometry x="380" y="160" width="10" height="80" as="geometry" />
        </mxCell>
        <mxCell id="aH9VVoESqp7Za4fdIKT4-13" value="" style="endArrow=none;dashed=1;html=1;rounded=0;" edge="1" parent="1">
          <mxGeometry width="50" height="50" relative="1" as="geometry">
            <mxPoint x="580" y="460" as="sourcePoint" />
            <mxPoint x="575" y="260" as="targetPoint" />
          </mxGeometry>
        </mxCell>
        <mxCell id="aH9VVoESqp7Za4fdIKT4-12" value="" style="html=1;points=[[0,0,0,0,5],[0,1,0,0,-5],[1,0,0,0,5],[1,1,0,0,-5]];perimeter=orthogonalPerimeter;outlineConnect=0;targetShapes=umlLifeline;portConstraint=eastwest;newEdgeStyle={&quot;curved&quot;:0,&quot;rounded&quot;:0};" vertex="1" parent="1">
          <mxGeometry x="570" y="180" width="10" height="130" as="geometry" />
        </mxCell>
        <mxCell id="aH9VVoESqp7Za4fdIKT4-14" value="2.插入反馈信息" style="html=1;verticalAlign=bottom;endArrow=block;curved=0;rounded=0;" edge="1" parent="1" target="aH9VVoESqp7Za4fdIKT4-12">
          <mxGeometry width="80" relative="1" as="geometry">
            <mxPoint x="390" y="189.5" as="sourcePoint" />
            <mxPoint x="470" y="189.5" as="targetPoint" />
          </mxGeometry>
        </mxCell>
        <mxCell id="aH9VVoESqp7Za4fdIKT4-15" value="3.返回响应信息" style="html=1;verticalAlign=bottom;endArrow=block;curved=0;rounded=0;exitX=0;exitY=0.75;exitDx=0;exitDy=0;exitPerimeter=0;" edge="1" parent="1" source="aH9VVoESqp7Za4fdIKT4-12">
          <mxGeometry width="80" relative="1" as="geometry">
            <mxPoint x="370" y="270" as="sourcePoint" />
            <mxPoint x="190" y="280" as="targetPoint" />
          </mxGeometry>
        </mxCell>
        <mxCell id="aH9VVoESqp7Za4fdIKT4-17" value="" style="endArrow=none;dashed=1;html=1;rounded=0;entryX=0.5;entryY=1;entryDx=0;entryDy=0;" edge="1" parent="1" target="aH9VVoESqp7Za4fdIKT4-16">
          <mxGeometry width="50" height="50" relative="1" as="geometry">
            <mxPoint x="185" y="460" as="sourcePoint" />
            <mxPoint x="185" y="230" as="targetPoint" />
          </mxGeometry>
        </mxCell>
        <mxCell id="aH9VVoESqp7Za4fdIKT4-16" value="" style="html=1;points=[[0,0,0,0,5],[0,1,0,0,-5],[1,0,0,0,5],[1,1,0,0,-5]];perimeter=orthogonalPerimeter;outlineConnect=0;targetShapes=umlLifeline;portConstraint=eastwest;newEdgeStyle={&quot;curved&quot;:0,&quot;rounded&quot;:0};" vertex="1" parent="1">
          <mxGeometry x="180" y="260" width="10" height="80" as="geometry" />
        </mxCell>
      </root>
    </mxGraphModel>
  </diagram>
</mxfile>
